<?xml version="1.0" encoding="utf-8"?>
<!-- Generator: Adobe Illustrator 25.3.1, SVG Export Plug-In . SVG Version: 6.00 Build 0)  -->
<svg version="1.1" id="Layer_1" xmlns="http://www.w3.org/2000/svg" xmlns:xlink="http://www.w3.org/1999/xlink" x="0px" y="0px"
	 viewBox="0 0 781 188.9" style="enable-background:new 0 0 781 188.9;" xml:space="preserve">
<style type="text/css">
	.st0{display:none;}
	.st1{display:inline;fill:#9CFF57;}
	.st2{fill:#333333;}
</style>
<g id="Layer_2_1_" class="st0">
	<rect x="-146" y="0" class="st1" width="1920" height="200"/>
</g>
<g id="g923" transform="translate(-0.53422889,-18)">
	<path id="path844" class="st2" d="M659,122.3c-2.2,1.4-5.5,2.6-9.5,2.6c-6.1,0-11.9-0.8-17.8-2.6c-1.4-0.3-2.6-0.8-3.3-0.8
		c-1.1,0-1.4,0.8-1.4,2.2v3.6c0,1.1,0.3,1.8,0.8,2.6c0.3,0.3,1.1,1.1,2.2,1.4c5.8,2.6,12.3,3.7,19.6,3.7c7.7,0,13.5-1.8,18.2-5.5
		c4.8-3.6,6.9-8.3,6.9-14.5c0-4.3-1.1-7.7-3.3-10.6c-2.2-2.6-5.8-5-10.8-6.9l-10.2-4c-4-1.4-6.9-2.9-8-4.3c-1.4-1.4-2.2-2.9-2.2-5.5
		c0-5.5,4-8.3,12.4-8.3c4.7,0,9.5,0.8,13.8,2.2c1.4,0.3,2.6,0.8,2.9,0.8c1.1,0,1.8-0.8,1.8-2.2v-3.7c0-1.1-0.3-1.8-0.8-2.6
		c-0.3-0.8-1.1-1.1-2.2-1.4c-5.5-1.8-10.8-2.9-16.4-2.9c-6.9,0-12.7,1.8-17.1,5c-4.3,3.3-6.6,8-6.6,13.5c0,8.3,4.7,14.5,14.1,18.2
		l10.8,4c3.7,1.4,5.8,2.6,7.2,4c1.4,1.4,1.8,2.9,1.8,5C662.2,118.4,661.1,120.8,659,122.3z"/>
	<path id="path855" class="st2" d="M602,70v48.3c-6.1,4-12.3,6.1-18.5,6.1c-4,0-6.9-1.1-8.7-3.3c-1.8-2.2-2.6-5.5-2.6-10.2V70
		c0-1.8-0.8-2.6-2.6-2.6H562c-1.8,0-2.6,0.8-2.6,2.6v45.1c0,6.1,1.4,11.2,4.7,14.5c3.3,3.3,8,5,14.1,5c8.3,0,16.7-2.9,24.7-8.7
		l0.8,4.3c0,1.1,0.3,1.4,1.1,1.8c0.3,0.3,1.1,0.3,2.2,0.3h5.5c1.8,0,2.6-0.8,2.6-2.6V70c0-1.8-0.8-2.6-2.6-2.6h-7.6
		C602.7,67.5,602,68.6,602,70z"/>
	<path id="path866" class="st2" d="M533,132.9h7.7c1.8,0,2.6-0.8,2.6-2.6V84.9c0-6.1-1.4-10.8-4.7-14.1c-3.3-3.3-7.7-5-13.8-5
		c-8.3,0-17.1,2.9-25.5,9.1c-2.9-6.1-8.3-9.1-16.4-9.1c-8,0-16,2.9-24,8.3l-0.8-4c0-1.1-0.3-1.4-1.1-1.8c-0.3-0.3-1.1-0.3-1.8-0.3
		h-5.7c-1.8,0-2.6,0.8-2.6,2.6v60.3c0,1.8,0.8,2.6,2.6,2.6h7.7c1.8,0,2.6-0.8,2.6-2.6V81.7c6.1-3.6,12.3-5.8,18.8-5.8
		c3.7,0,6.1,1.1,7.7,3.3c1.5,2.2,2.6,5,2.6,9.5v41.7c0,1.8,0.8,2.6,2.6,2.6h7.7c1.8,0,2.6-0.8,2.6-2.6V85.7v-2.2c0-0.8,0-1.4,0-1.8
		c6.6-4,12.7-5.8,18.8-5.8c3.7,0,6.1,1.1,7.7,3.3c1.4,2.2,2.6,5,2.6,9.5v41.7C530.4,132.2,531.2,132.9,533,132.9z"/>
	<path id="path888" class="st2" d="M729.8,82c3.3-3.7,8.3-5.5,15.6-5.5c3.7,0,7.2,0.3,10.6,1.4c1.1,0.3,1.4,0.3,2.2,0.3
		c1.1,0,1.8-0.8,1.8-2.6V72c0-1.1-0.3-2.2-0.8-2.6c-0.3-0.3-1.1-1.1-1.8-1.4c-4.7-1.1-9.5-2.2-13.8-2.2c-10.2,0-17.8,2.9-23.6,9.1
		c-5.5,5.8-8.3,14.5-8.3,25.4s2.6,19.2,8,25.1c5.5,5.8,13,8.7,23.3,8.7c5.5,0,10.6-0.8,14.5-2.6c1.1-0.3,1.8-0.8,2.2-1.4
		c0.3-0.3,0.3-1.4,0.3-2.6v-3.6c0-1.8-0.8-2.6-1.8-2.6c-0.3,0-1.1,0-1.8,0.3c-4,1.1-8,1.8-11.6,1.8c-6.9,0-11.9-1.8-15.2-5.5
		c-3.3-3.7-4.7-9.5-4.7-17.1V99C725.1,91.5,726.5,85.7,729.8,82z"/>
	<path id="path910" class="st2" d="M695.7,67.5H688c-1.8,0-2.6,0.8-2.6,2.6v60.3c0,1.8,0.8,2.6,2.6,2.6h7.7c1.8,0,2.6-0.8,2.6-2.6
		V70C698.2,68.6,697.5,67.5,695.7,67.5z"/>
	<path id="path921" class="st2" d="M697.8,42.8c-1.4-1.4-3.7-2.2-6.1-2.2c-2.5,0-4.3,0.8-5.8,2.2c-1.4,1.4-2.2,3.3-2.2,5.5
		c0,2.2,0.8,4.3,2.2,5.5c1.4,1.4,3.3,2.2,5.8,2.2s4.3-0.8,5.8-2.2c1.4-1.4,2.2-3.3,2.2-5.5C699.6,46.1,699.3,43.9,697.8,42.8z"/>
</g>
<path id="path8" class="st2" d="M266.8,139c-22.8,16.8-55.9,25.8-84.4,25.8c-40,0-75.9-14.8-103.2-39.3c-2.1-1.9-0.2-4.6,2.3-3
	c29.4,17,65.7,27.3,103.2,27.3c25.3,0,53.1-5.2,78.7-16.1C267.3,132.1,270.5,136.2,266.8,139"/>
<path id="path10" class="st2" d="M276.3,128.2c-2.9-3.8-19.3-1.8-26.7-0.9c-2.2,0.3-2.6-1.7-0.6-3c13-9.2,34.5-6.6,36.9-3.5
	c2.5,3.1-0.7,24.5-12.9,34.8c-1.8,1.6-3.7,0.8-2.9-1.3C273.1,147.4,279.2,131.9,276.3,128.2"/>
<path id="path12" class="st2" d="M250.1,59.3v-8.9c0-1.3,1-2.3,2.3-2.3h39.9c1.3,0,2.3,0.9,2.3,2.3v7.7c0,1.3-1.1,2.9-3,5.6
	l-20.7,29.6c7.7-0.2,15.8,0.9,22.8,4.9c1.6,0.9,2,2.2,2.1,3.5v9.5c0,1.3-1.4,2.9-2.9,2c-12.3-6.5-28.6-7.1-42.2,0.1
	c-1.3,0.8-2.9-0.8-2.9-2v-9c0-1.4,0-4,1.4-6.1l24-34.4h-20.8C251.1,61.7,250.1,60.8,250.1,59.3"/>
<path id="path14" class="st2" d="M104.3,115.1H92.2c-1.2-0.1-2.1-0.9-2.2-2.1V50.6c0-1.3,1-2.2,2.3-2.2h11.3
	c1.2,0.1,2.1,0.9,2.2,2.1v8.2h0.2c2.9-7.9,8.6-11.6,16-11.6c7.7,0,12.4,3.7,15.8,11.6c2.9-7.9,9.7-11.6,16.8-11.6
	c5,0,10.7,2.1,14,6.8c3.9,5.2,3,12.9,3,19.6v39.4c0,1.3-1,2.3-2.3,2.3h-12.1c-1.2-0.1-2.2-1.1-2.2-2.3V79.8c0-2.7,0.3-9.2-0.3-11.7
	c-0.9-4.2-3.6-5.3-7.1-5.3c-2.9,0-6,1.9-7.2,5.1c-1.3,3.1-1.1,8.5-1.1,11.9V113c0,1.3-1,2.3-2.3,2.3h-12.2c-1.2-0.1-2.2-1.1-2.2-2.3
	V79.9c0-7,1.1-17.2-7.5-17.2c-8.7,0-8.3,10-8.3,17.2V113C106.7,114.1,105.7,115.1,104.3,115.1"/>
<path id="path16" class="st2" d="M329.1,47.1c18,0,27.8,15.6,27.8,35.2c0,19-10.8,34.1-27.8,34.1c-17.7,0-27.4-15.6-27.4-34.8
	C301.7,62.1,311.5,47.1,329.1,47.1 M329.2,59.8c-8.9,0-9.6,12.2-9.6,19.8s-0.1,23.9,9.5,23.9c9.5,0,9.8-13.1,9.8-21.1
	c0-5.2-0.2-11.6-1.8-16.6C335.7,61.4,333.1,59.8,329.2,59.8"/>
<path id="path18" class="st2" d="M380.3,115.1h-12.1c-1.2-0.1-2.2-1.1-2.2-2.3V50.3c0.1-1.1,1.1-2,2.3-2h11.3
	c1.1,0.1,1.9,0.8,2.2,1.8v9.6h0.2c3.4-8.6,8.2-12.6,16.6-12.6c5.5,0,10.8,1.9,14.1,7.3c3.2,5,3.2,13.5,3.2,19.4v39.3
	c-0.1,1.1-1.1,1.9-2.3,1.9h-12.1c-1.1-0.1-2-0.9-2.1-1.9V79.2c0-6.8,0.8-16.8-7.7-16.8c-2.9,0-5.7,2-7,5c-1.8,3.8-1.9,7.7-1.9,11.9
	v33.6C382.6,114.1,381.6,115.1,380.3,115.1"/>
<g id="use28" transform="translate(244.36719)">
	<path id="path30" class="st2" d="M-27,85.3v-2.7c-8.8,0-18.1,1.8-18.1,12.2c0,5.2,2.8,8.8,7.3,8.8c3.4,0,6.6-2.1,8.5-5.5
		C-26.8,93.9-27,89.9-27,85.3 M-14.6,114.9c-0.8,0.8-1.9,0.8-2.9,0.3c-4-3.3-4.8-4.9-7-8.1c-6.7,6.8-11.4,8.8-20,8.8
		c-10.2,0-18.2-6.3-18.2-18.9c0-9.8,5.3-16.6,12.9-19.8c6.6-2.9,15.8-3.4,22.9-4.2v-1.6c0-2.9,0.2-6.3-1.4-8.8
		c-1.4-2.2-4.3-3.1-6.8-3.1c-4.6,0-8.7,2.4-9.8,7.2c-0.2,1.1-1,2.2-2.1,2.2l-11.8-1.3c-1-0.2-2.1-1-1.8-2.6
		c2.8-14.4,15.6-18.6,27.2-18.6c5.9,0,13.6,1.6,18.3,6.1c5.9,5.5,5.3,12.9,5.3,20.9v18.9c0,5.7,2.4,8.2,4.6,11.3
		c0.8,1.1,0.9,2.4,0,3.2C-7.7,108.9-12.2,112.8-14.6,114.9L-14.6,114.9"/>
</g>
<path id="path30_1_" class="st2" d="M58.8,85.3v-2.7c-8.8,0-18.1,1.8-18.1,12.2c0,5.2,2.8,8.8,7.3,8.8c3.4,0,6.6-2.1,8.5-5.5
	C58.9,93.9,58.8,89.9,58.8,85.3 M71.2,114.9c-0.8,0.8-1.9,0.8-2.9,0.3c-4-3.3-4.8-4.9-7-8.1c-6.7,6.8-11.4,8.8-20,8.8
	c-10.2,0-18.2-6.3-18.2-18.9c0-9.8,5.3-16.6,12.9-19.8C42.8,74.2,52,73.8,59,73v-1.6c-0.1-2.9,0.2-6.4-1.5-8.9
	c-1.4-2.2-4.3-3.1-6.8-3.1c-4.6,0-8.7,2.4-9.8,7.2c-0.2,1.1-1,2.2-2.1,2.2l-11.8-1.3c-1-0.2-2.1-1-1.8-2.6
	C28,50.6,40.9,46.4,52.5,46.4c5.9,0,13.6,1.6,18.3,6.1c5.9,5.5,5.3,12.9,5.3,20.9v18.9c0,5.7,2.4,8.2,4.6,11.3
	c0.8,1.1,0.9,2.4,0,3.2C78,108.9,73.6,112.8,71.2,114.9L71.2,114.9"/>
</svg>
