<?xml version="1.0" encoding="utf-8"?>
<!-- Generator: Adobe Illustrator 24.2.0, SVG Export Plug-In . SVG Version: 6.00 Build 0)  -->
<svg version="1.1" id="Layer_1" xmlns="http://www.w3.org/2000/svg" xmlns:xlink="http://www.w3.org/1999/xlink" x="0px" y="0px"
	 viewBox="0 0 367 200" style="enable-background:new 0 0 367 200;" xml:space="preserve">
<style type="text/css">
	.st0{display:none;}
	.st1{display:inline;fill:#9CFF57;}
	.st2{fill:#46B4FF;}
</style>
<g id="Layer_2_1_" class="st0">
	<rect x="-1375" class="st1" width="1920" height="200"/>
</g>
<g id="Layer_1_1_">
	<path class="st2" d="M-348.9,136.5V69.8h-0.5l-26.7,66.8h-10.4l-26.7-66.8h-0.5v66.8H-426V46h15.8l28.7,72.2h0.5l28.7-72.2h16.3
		v90.5H-348.9L-348.9,136.5z M-266.3,136.5h-12.9v-11.4h-0.5c-3.5,7.9-10.4,12.4-20.3,12.4c-14.3,0-22.7-9.4-22.7-24.7V70.3h13.4
		v40.1c0,9.9,4.9,15.3,13.8,15.3c9.9,0,15.3-6.9,15.3-17.3V70.3h13.4L-266.3,136.5L-266.3,136.5z M-229.7,69.3
		c15.3,0,24.7,8.4,25.2,20.8h-12.4c-1-6.4-5.4-10.4-12.9-10.4c-7.4,0-12.4,3.5-12.4,8.9c0,4,3,6.9,9.9,8.4l10.4,2.5
		c13.4,3,18.3,8.4,18.3,17.8c0,11.9-10.9,20.3-26.2,20.3c-16.3,0-26.2-7.9-27.2-20.8h13.4c1,6.9,5.9,10.4,13.8,10.4
		s12.9-3.5,12.9-8.9c0-4.5-2.5-6.9-9.4-8.4l-10.4-2.5c-12.4-3-18.3-8.9-18.3-18.8C-254.9,77.2-245,69.3-229.7,69.3z M-193.6,53
		c0-4.5,3.5-7.9,7.9-7.9c4.5,0,7.9,3.5,7.9,7.9s-3.5,7.9-7.9,7.9S-193.6,57.4-193.6,53L-193.6,53z M-192.6,70.3h13.4v66.3h-13.4
		V70.3z M-122.9,93c-1.5-6.9-6.4-12.9-15.3-12.9c-10.4,0-17.3,8.9-17.3,22.7c0,14.3,6.9,22.7,17.3,22.7c8.4,0,13.4-4.5,15.3-12.4
		h12.9c-1.5,13.8-12.4,23.7-28.2,23.7c-18.8,0-30.7-12.9-30.7-34.1c0-20.8,11.9-34.1,30.7-34.1c16.8,0,26.7,10.9,28.2,23.7
		L-122.9,93L-122.9,93z M-467,54.9c-3.5,4-8.9,7.4-14.3,6.9c-1-5.9,2-11.9,4.9-15.3c3.5-4.5,9.4-7.4,14.3-7.4
		C-461.6,44.5-463.6,50.5-467,54.9L-467,54.9z M-462.1,62.8c3,0,11.9,1,17.8,9.9c-0.5,0.5-10.4,6.4-10.4,18.8
		c0,14.8,12.9,19.8,12.9,19.8c0,0.5-2,6.9-6.4,13.8c-4,5.9-8.4,11.9-14.8,11.9s-8.4-4-15.8-4s-9.9,4-15.8,4
		c-6.4,0-11.4-6.4-15.3-12.4c-8.4-12.4-14.8-34.6-5.9-49.5c4-7.4,11.9-12.4,19.8-12.4c6.4,0,12.4,4.5,15.8,4.5
		C-476.9,67.3-470,62.4-462.1,62.8L-462.1,62.8z"/>
	<path class="st2" d="M-1120.7,12.4c-46.2,0-83.7,37.5-83.7,83.7c0,46.3,37.5,83.7,83.7,83.7c46.3,0,83.7-37.5,83.7-83.7
		S-1074.5,12.4-1120.7,12.4L-1120.7,12.4z M-1082.3,133.2c-1.5,2.5-4.7,3.2-7.2,1.7c-19.7-12-44.4-14.7-73.6-8.1
		c-2.8,0.6-5.6-1.1-6.2-3.9s1.1-5.6,3.9-6.2c31.9-7.3,59.3-4.2,81.3,9.3C-1081.6,127.6-1080.8,130.8-1082.3,133.2z M-1072.1,110.4
		c-1.9,3.1-5.9,4-9,2.2c-22.5-13.8-56.8-17.8-83.4-9.8c-3.5,1-7.1-0.9-8.1-4.3c-1-3.5,0.9-7.1,4.4-8.1c30.4-9.2,68.2-4.8,94.1,11.1
		C-1071.2,103.3-1070.2,107.4-1072.1,110.4L-1072.1,110.4z M-1071.2,86.7c-27-16-71.5-17.5-97.3-9.7c-4.1,1.3-8.5-1.1-9.8-5.2
		s1.1-8.5,5.2-9.8c29.6-9,78.8-7.2,109.8,11.2c3.7,2.2,5,7,2.7,10.7C-1062.7,87.7-1067.5,88.9-1071.2,86.7L-1071.2,86.7z
		 M-976.6,89.7c-14.5-3.4-17-5.9-17-11c0-4.8,4.5-8,11.2-8c6.5,0,13,2.5,19.8,7.5c0.2,0.2,0.5,0.2,0.7,0.2c0.3,0,0.5-0.2,0.6-0.4
		l7.1-10c0.3-0.4,0.2-1-0.2-1.3c-8.1-6.5-17.2-9.6-27.8-9.6c-15.6,0-26.5,9.4-26.5,22.8c0,14.4,9.4,19.5,25.7,23.4
		c13.8,3.2,16.2,5.9,16.2,10.6c0,5.3-4.7,8.6-12.3,8.6c-8.4,0-15.3-2.8-23-9.5c-0.2-0.2-0.5-0.2-0.7-0.2c-0.3,0-0.5,0.1-0.6,0.3
		l-7.9,9.4c-0.3,0.4-0.3,1,0.1,1.3c9,8,20,12.2,31.9,12.2c16.8,0,27.7-9.2,27.7-23.4C-951.8,100.7-959,94-976.6,89.7
		C-976.6,89.8-976.6,89.7-976.6,89.7z M-913.8,75.5c-7.3,0-13.3,2.9-18.2,8.8v-6.6c0-0.5-0.4-0.9-0.9-0.9h-13
		c-0.5,0-0.9,0.4-0.9,0.9v73.6c0,0.5,0.4,0.9,0.9,0.9h13c0.5,0,0.9-0.4,0.9-0.9V128c4.9,5.5,10.9,8.2,18.2,8.2
		c13.5,0,27.3-10.4,27.3-30.4C-886.5,85.9-900.2,75.5-913.8,75.5L-913.8,75.5L-913.8,75.5z M-901.6,105.9c0,10.1-6.2,17.2-15.2,17.2
		c-8.8,0-15.5-7.4-15.5-17.2s6.7-17.2,15.5-17.2C-908,88.6-901.6,95.9-901.6,105.9L-901.6,105.9z M-851.4,75.5
		c-17.5,0-31.1,13.4-31.1,30.6c0,17,13.6,30.3,30.9,30.3c17.5,0,31.2-13.4,31.2-30.5C-820.4,88.8-834,75.5-851.4,75.5L-851.4,75.5z
		 M-851.4,123.2c-9.3,0-16.3-7.5-16.3-17.3c0-9.9,6.8-17.1,16.1-17.1s16.4,7.5,16.4,17.4C-835.2,116-842,123.2-851.4,123.2z
		 M-783.1,76.7h-14.2V62.1c0-0.5-0.4-0.9-0.9-0.9h-13c-0.5,0-1,0.4-1,0.9v14.6h-6.2c-0.5,0-0.9,0.4-0.9,0.9v11.1
		c0,0.5,0.4,0.9,0.9,0.9h6.2v28.8c0,11.6,5.8,17.5,17.2,17.5c4.6,0,8.5-1,12.1-3c0.3-0.2,0.5-0.5,0.5-0.8v-10.6
		c0-0.3-0.2-0.6-0.5-0.8c-0.3-0.2-0.6-0.2-0.9,0c-2.5,1.2-4.9,1.8-7.6,1.8c-4.2,0-6-1.9-6-6.1V89.7h14.2c0.5,0,0.9-0.4,0.9-0.9V77.6
		C-782.1,77.1-782.6,76.7-783.1,76.7L-783.1,76.7L-783.1,76.7z M-733.5,76.7v-1.8c0-5.3,2-7.6,6.5-7.6c2.7,0,4.9,0.5,7.3,1.3
		c0.3,0.1,0.6,0,0.8-0.1c0.2-0.2,0.4-0.5,0.4-0.8V56.9c0-0.4-0.3-0.8-0.7-0.9c-2.6-0.8-5.8-1.5-10.8-1.5c-12,0-18.3,6.7-18.3,19.5
		v2.7h-6.2c-0.5,0-1,0.4-1,0.9v11.2c0,0.5,0.4,0.9,1,0.9h6.2v44.4c0,0.5,0.4,0.9,1,0.9h12.9c0.5,0,1-0.4,1-0.9V89.7h12.1l18.5,44.4
		c-2.1,4.7-4.2,5.6-7,5.6c-2.3,0-4.7-0.7-7.1-2c-0.2-0.1-0.5-0.1-0.8-0.1c-0.2,0.1-0.5,0.3-0.6,0.5l-4.4,9.6c-0.2,0.5,0,1,0.4,1.2
		c4.6,2.5,8.7,3.5,13.8,3.5c9.6,0,14.8-4.5,19.5-16.4l22.5-58c0.1-0.3,0.1-0.6-0.1-0.9c-0.2-0.3-0.5-0.4-0.8-0.4h-13.5
		c-0.4,0-0.8,0.3-0.9,0.6l-13.8,39.4l-15.1-39.5c-0.1-0.4-0.5-0.6-0.9-0.6L-733.5,76.7L-733.5,76.7L-733.5,76.7z M-762.2,76.7h-13
		c-0.5,0-1,0.4-1,0.9v56.5c0,0.5,0.4,0.9,1,0.9h13c0.5,0,1-0.4,1-0.9V77.6C-761.3,77.1-761.7,76.7-762.2,76.7L-762.2,76.7z
		 M-768.6,51c-5.1,0-9.3,4.2-9.3,9.3s4.2,9.3,9.3,9.3s9.3-4.2,9.3-9.3C-759.4,55.1-763.5,51-768.6,51z M-655.2,94.8
		c-5.1,0-9.1-4.1-9.1-9.1s4-9.2,9.2-9.2s9.1,4.1,9.1,9.1C-646.1,90.7-650.1,94.8-655.2,94.8z M-655.2,77.5c-4.7,0-8.2,3.7-8.2,8.3
		c0,4.5,3.5,8.2,8.2,8.2s8.2-3.7,8.2-8.3C-647,81.1-650.5,77.5-655.2,77.5z M-653.1,86.6l2.6,3.6h-2.2l-2.3-3.3h-2v3.3h-1.8v-9.6
		h4.3c2.2,0,3.7,1.1,3.7,3.1C-650.9,85.3-651.8,86.2-653.1,86.6L-653.1,86.6z M-654.7,82.3h-2.4v3h2.4c1.2,0,1.9-0.6,1.9-1.5
		C-652.8,82.8-653.5,82.3-654.7,82.3z"/>
	<g>
		<path class="st2" d="M198.3,35.9h16.2v38.8h0.3c4.4-7.4,13.7-11.9,21.9-11.9c23.2,0,34.4,18.2,34.4,40.5c0,20.4-10,39.7-31.7,39.7
			c-10,0-20.6-2.5-25.5-12.5h-0.3V141h-15.4L198.3,35.9L198.3,35.9z M234.6,76.1C221,76.1,214,86.8,214,103
			c0,15.3,7.5,26.8,20.6,26.8c14.8,0,20.3-13.5,20.3-26.8C254.9,89.2,248,76.1,234.6,76.1"/>
		<path class="st2" d="M330.9,90.3C329.6,81,323.1,76,314.1,76c-8.4,0-20.2,4.6-20.2,27.7c0,12.7,5.4,26,19.5,26
			c9.4,0,15.9-6.5,17.5-17.4h16.2c-3,19.7-14.8,30.6-33.7,30.6c-23,0-35.7-16.9-35.7-39.3c0-22.9,12.1-40.9,36.3-40.9
			c17.1,0,31.6,8.8,33.1,27.5h-16.2V90.3z"/>
		<polygon class="st2" points="141.7,140.7 20.1,140.7 76.8,35.9 198.4,35.9 		"/>
	</g>
</g>
</svg>
