<?xml version="1.0" encoding="utf-8"?>
<!-- Generator: Adobe Illustrator 25.3.1, SVG Export Plug-In . SVG Version: 6.00 Build 0)  -->
<svg version="1.1" id="Layer_1" xmlns="http://www.w3.org/2000/svg" xmlns:xlink="http://www.w3.org/1999/xlink" x="0px" y="0px"
	 viewBox="0 0 600 178.9" style="enable-background:new 0 0 600 178.9;" xml:space="preserve">
<style type="text/css">
	.st0{display:none;}
	.st1{display:inline;fill:#9CFF57;}
	.st2{fill:#46B4FF;}
	.st3{fill-rule:evenodd;clip-rule:evenodd;fill:#46B4FF;}
</style>
<g id="Layer_2_1_" class="st0">
	<rect x="-146" y="0" class="st1" width="1920" height="200"/>
</g>
<path id="path8175" class="st2" d="M151.6,97.6c0,22,13.6,35.2,33.6,35.2c10.1,0,18.5-2.8,23.2-10.2v10.2h18.4V28h-19.1v44.5
	c-4.3-7.4-12.3-10.6-22.4-10.6C165.7,61.8,151.6,75.2,151.6,97.6L151.6,97.6z M208.3,97.6c0,12.6-8.5,20.4-18.8,20.4
	c-10.6,0-18.8-7.8-18.8-20.4c0-12.8,8.2-20.8,18.8-20.8C199.8,76.8,208.3,84.9,208.3,97.6z"/>
<path id="path8177" class="st2" d="M286.2,105.7c-2.2,8.1-7.7,12.1-16.5,12.1c-10.2,0-18.5-6.1-18.7-17h48.1
	c0.6-2.7,0.9-5.6,0.9-8.6c0-19.5-13.3-30.4-32.8-30.4c-20.9,0-35.3,14.8-35.3,35.1c0,22.5,15.8,36,37.8,36
	c16.6,0,27.8-6.9,32.7-20.7L286.2,105.7z M251.1,88.2c1.8-7.8,8.4-12.4,16.2-12.4c8.5,0,14.4,4.6,14.4,11.9l-0.1,0.6
	C281.5,88.2,251.1,88.2,251.1,88.2z"/>
<path id="path8179" class="st2" d="M357,105.7c-2.2,8.1-7.7,12.1-16.5,12.1c-10.2,0-18.5-6.1-18.7-17H370c0.6-2.7,0.9-5.6,0.9-8.6
	c0-19.5-13.3-30.4-32.8-30.4c-20.9,0-35.3,14.8-35.3,35.1c0,22.5,15.8,36,37.8,36c16.6,0,27.8-6.9,32.7-20.7L357,105.7z M321.8,88.2
	c1.8-7.8,8.4-12.4,16.2-12.4c8.5,0,14.4,4.6,14.4,11.9l-0.1,0.6L321.8,88.2L321.8,88.2z"/>
<path id="path8181" class="st2" d="M438.3,132.9v-17.3h-40.1l39-38V61.8h-61.7v16.5h37.7l-38.9,38.1v16.5H438.3L438.3,132.9z"/>
<path id="path8183" class="st2" d="M494,105.7c-2.2,8.1-7.7,12.1-16.5,12.1c-10.2,0-18.5-6.1-18.7-17H507c0.6-2.7,0.9-5.6,0.9-8.6
	c0-19.5-13.3-30.4-32.8-30.4c-20.9,0-35.3,14.8-35.3,35.1c0,22.5,15.8,36,37.8,36c16.6,0,27.8-6.9,32.7-20.7L494,105.7z M458.9,88.2
	c1.8-7.8,8.4-12.4,16.2-12.4c8.5,0,14.4,4.6,14.4,11.9l-0.1,0.6L458.9,88.2L458.9,88.2z"/>
<rect id="rect8185" x="108.4" y="61.8" class="st3" width="23.6" height="13.8"/>
<rect id="rect8192" x="108.4" y="80.9" class="st3" width="23.6" height="13.8"/>
<rect id="rect8199" x="108.4" y="100" class="st3" width="23.6" height="13.8"/>
<rect id="rect8206" x="23.1" y="119.1" class="st3" width="23.6" height="13.8"/>
<rect id="rect8213" x="51.5" y="119.1" class="st3" width="23.6" height="13.8"/>
<rect id="rect8220" x="80" y="119.1" class="st3" width="23.6" height="13.8"/>
<rect id="rect8227" x="108.4" y="119.1" class="st3" width="23.6" height="13.8"/>
<rect id="rect8234" x="80" y="100" class="st3" width="23.6" height="13.8"/>
<rect id="rect8241" x="51.5" y="100" class="st3" width="23.6" height="13.8"/>
<rect id="rect8248" x="51.5" y="80.9" class="st3" width="23.6" height="13.8"/>
<path id="path8250" class="st2" d="M553.1,86.4c0,0.7,0,2.1,0,2.1h18.6c0,0,0-3.5,0-5.4c0-12.1-7.6-21-20.4-21
	c-8.2,0-14,4-17.1,10.6V61.9H515v71h19.2V87.2c0-7.3,3.9-11.2,9.9-11.2C549.6,75.9,553.1,81.2,553.1,86.4z"/>
</svg>
