<?xml version="1.0" encoding="utf-8"?>
<!-- Generator: Adobe Illustrator 24.2.0, SVG Export Plug-In . SVG Version: 6.00 Build 0)  -->
<svg version="1.1" id="Layer_1" xmlns="http://www.w3.org/2000/svg" xmlns:xlink="http://www.w3.org/1999/xlink" x="0px" y="0px"
	 viewBox="0 0 2629 375.1" style="enable-background:new 0 0 2629 375.1;" xml:space="preserve">
<style type="text/css">
	.st0{fill:#333333;}
</style>
<g>
	<path class="st0" d="M113.3,53.7h128.3v23.5h-102v86.1h85.7v23.5h-85.7v128h-26.2V53.7H113.3z"/>
	<path class="st0" d="M361,234.1l-20.3,85.7l-25.8-7l66.1-259h31.3l66.1,259l-25.8,7l-20.3-85.7H361z M397,88.5h-0.8l-29,122.1H426
		L397,88.5z"/>
	<path class="st0" d="M580.1,53.7h26.2v237.5h107.2v23.5H580.1V53.7z"/>
	<path class="st0" d="M939.3,275.6c-15.3,24.7-38,42.7-67.7,42.7c-68.1,0-78.3-82.2-78.3-133.8c0-52,10.2-134.2,78.3-134.2
		c29.7,0,50.1,17.2,63.8,42.3l-22.3,13.3C904.9,89.5,891.6,75,871.6,75c-47.7,0-50.9,75.1-50.9,109.6c0,34,3.1,109.2,50.9,109.2
		c20.3,0,36.4-16.8,46.2-32.9L939.3,275.6z"/>
	<path class="st0" d="M1173.3,184c0,32.9,1.2,134.2-72.4,134.2c-74.3,0-72.4-100.6-72.4-134.2c0-43,2.7-133.8,72.4-133.8
		C1174.5,50.2,1173.3,149.6,1173.3,184z M1055.9,184c0,70.4,8.2,109.6,45,109.6c45.4,0,45-64.2,45-109.6c0-49.3,1.2-109.2-45-109.2
		C1054.8,74.8,1055.9,145.6,1055.9,184z"/>
	<path class="st0" d="M1267.6,53.7h32.9l77.5,219.5l0.8-0.8l-1.2-58.3V53.7h26.2v261h-32.9l-77.5-219.9l-0.8,0.8l1.2,59.1v160h-26.2
		V53.7z"/>
	<path class="st0" d="M1769.7,234.1l-20.3,85.7l-25.8-7l66.1-259h31.3l66.1,259l-25.8,7l-20.3-85.7H1769.7z M1805.7,88.5h-0.8
		l-29,122.1h58.7L1805.7,88.5z"/>
	<path class="st0" d="M2094,48.6l26.6,5.5l-77.5,265.7h-6.3l-77.5-265.7l26.6-5.5l54,195.3L2094,48.6z"/>
	<path class="st0" d="M2218.9,53.7H2346v23.5h-101v86.1h83.3v23.5H2245v104.5h101v23.5h-127.2L2218.9,53.7L2218.9,53.7z"/>
	<path class="st0" d="M2424.8,256.8h36v57.9h-36V256.8z"/>
</g>
<rect x="58.7" y="215.9" class="st0" width="2317.7" height="20.6"/>
<path class="st0" d="M2027.9,227.3c0.7,0,25.3,1.4,25.3,1.4l-12.6,34.1l-13.6-11.4"/>
</svg>
