<?xml version="1.0" encoding="utf-8"?>
<!-- Generator: Adobe Illustrator 23.0.2, SVG Export Plug-In . SVG Version: 6.00 Build 0)  -->
<svg version="1.1" id="Layer_1" xmlns="http://www.w3.org/2000/svg" xmlns:xlink="http://www.w3.org/1999/xlink" x="0px" y="0px"
	 viewBox="0 0 79 74" style="enable-background:new 0 0 79 74;" xml:space="preserve">
<style type="text/css">
	.st0{fill:#F7F7F7;enable-background:new    ;}
	.st1{fill:#515151;}
</style>
<circle class="st0" cx="40" cy="37" r="30"/>
<path class="st1" d="M28,31.1h24c1.1,0,2-0.9,2-2s-0.9-2-2-2H28c-1.1,0-2,0.9-2,2S26.9,31.1,28,31.1z M52,35.1H28c-1.1,0-2,0.9-2,2
	s0.9,2,2,2h24c1.1,0,2-0.9,2-2S53.1,35.1,52,35.1z M52,43.1H28c-1.1,0-2,0.9-2,2s0.9,2,2,2h24c1.1,0,2-0.9,2-2S53.1,43.1,52,43.1z"
	/>
</svg>
