<?xml version="1.0" encoding="utf-8"?>
<!-- Generator: Adobe Illustrator 24.2.0, SVG Export Plug-In . SVG Version: 6.00 Build 0)  -->
<svg version="1.1" xmlns="http://www.w3.org/2000/svg" xmlns:xlink="http://www.w3.org/1999/xlink" x="0px" y="0px"
	 viewBox="0 0 598 200" style="enable-background:new 0 0 598 200;" xml:space="preserve">
<style type="text/css">
	.st0{display:none;}
	.st1{display:inline;fill:#9CFF57;}
	.st2{fill:#333333;}
</style>
<g id="Layer_2" class="st0">
	<rect x="-146" class="st1" width="1920" height="200"/>
</g>
<g id="Layer_1">
	<path class="st2" d="M880.1,136.5V69.8h-0.5l-26.7,66.8h-10.4l-26.7-66.8h-0.5v66.8H803V46h15.8l28.7,72.2h0.5L876.7,46H893v90.5
		H880.1L880.1,136.5z M962.7,136.5h-12.9v-11.4h-0.5c-3.5,7.9-10.4,12.4-20.3,12.4c-14.3,0-22.7-9.4-22.7-24.7V70.3h13.4v40.1
		c0,9.9,4.9,15.3,13.8,15.3c9.9,0,15.3-6.9,15.3-17.3V70.3h13.4L962.7,136.5L962.7,136.5z M999.3,69.3c15.3,0,24.7,8.4,25.2,20.8
		h-12.4c-1-6.4-5.4-10.4-12.9-10.4c-7.4,0-12.4,3.5-12.4,8.9c0,4,3,6.9,9.9,8.4l10.4,2.5c13.4,3,18.3,8.4,18.3,17.8
		c0,11.9-10.9,20.3-26.2,20.3c-16.3,0-26.2-7.9-27.2-20.8h13.4c1,6.9,5.9,10.4,13.8,10.4c7.9,0,12.9-3.5,12.9-8.9
		c0-4.5-2.5-6.9-9.4-8.4l-10.4-2.5c-12.4-3-18.3-8.9-18.3-18.8C974.1,77.2,984,69.3,999.3,69.3z M1035.4,53c0-4.5,3.5-7.9,7.9-7.9
		s7.9,3.5,7.9,7.9s-3.5,7.9-7.9,7.9S1035.4,57.4,1035.4,53L1035.4,53z M1036.4,70.3h13.4v66.3h-13.4V70.3z M1106.1,93
		c-1.5-6.9-6.4-12.9-15.3-12.9c-10.4,0-17.3,8.9-17.3,22.7c0,14.3,6.9,22.7,17.3,22.7c8.4,0,13.4-4.5,15.3-12.4h12.9
		c-1.5,13.8-12.4,23.7-28.2,23.7c-18.8,0-30.7-12.9-30.7-34.1c0-20.8,11.9-34.1,30.7-34.1c16.8,0,26.7,10.9,28.2,23.7L1106.1,93
		L1106.1,93z M762,54.9c-3.5,4-8.9,7.4-14.3,6.9c-1-5.9,2-11.9,4.9-15.3c3.5-4.5,9.4-7.4,14.3-7.4C767.4,44.5,765.4,50.5,762,54.9
		L762,54.9z M766.9,62.8c3,0,11.9,1,17.8,9.9c-0.5,0.5-10.4,6.4-10.4,18.8c0,14.8,12.9,19.8,12.9,19.8c0,0.5-2,6.9-6.4,13.8
		c-4,5.9-8.4,11.9-14.8,11.9s-8.4-4-15.8-4c-7.4,0-9.9,4-15.8,4c-6.4,0-11.4-6.4-15.3-12.4c-8.4-12.4-14.8-34.6-5.9-49.5
		c4-7.4,11.9-12.4,19.8-12.4c6.4,0,12.4,4.5,15.8,4.5C752.1,67.3,759,62.4,766.9,62.8L766.9,62.8z"/>
	<path class="st2" d="M108.3,12.4c-46.2,0-83.7,37.5-83.7,83.7c0,46.3,37.5,83.7,83.7,83.7c46.3,0,83.7-37.5,83.7-83.7
		C192,49.9,154.5,12.4,108.3,12.4C108.3,12.4,108.3,12.4,108.3,12.4z M146.7,133.2c-1.5,2.5-4.7,3.2-7.2,1.7
		c-19.7-12-44.4-14.7-73.6-8.1c-2.8,0.6-5.6-1.1-6.2-3.9c-0.6-2.8,1.1-5.6,3.9-6.2c31.9-7.3,59.3-4.2,81.3,9.3
		C147.4,127.6,148.2,130.8,146.7,133.2z M156.9,110.4c-1.9,3.1-5.9,4-9,2.2c-22.5-13.8-56.8-17.8-83.4-9.8c-3.5,1-7.1-0.9-8.1-4.3
		c-1-3.5,0.9-7.1,4.4-8.1c30.4-9.2,68.2-4.8,94.1,11.1C157.8,103.3,158.8,107.4,156.9,110.4L156.9,110.4z M157.8,86.7
		c-27-16-71.5-17.5-97.3-9.7c-4.1,1.3-8.5-1.1-9.8-5.2c-1.3-4.1,1.1-8.5,5.2-9.8c29.6-9,78.8-7.2,109.8,11.2c3.7,2.2,4.9,7,2.7,10.7
		C166.3,87.7,161.5,88.9,157.8,86.7L157.8,86.7z M252.4,89.7c-14.5-3.4-17-5.9-17-11c0-4.8,4.5-8,11.2-8c6.5,0,13,2.5,19.8,7.5
		c0.2,0.2,0.5,0.2,0.7,0.2c0.3,0,0.5-0.2,0.6-0.4l7.1-10c0.3-0.4,0.2-1-0.2-1.3c-8.1-6.5-17.1-9.6-27.8-9.6
		c-15.6,0-26.5,9.4-26.5,22.8c0,14.4,9.4,19.5,25.7,23.4c13.8,3.2,16.2,5.9,16.2,10.6c0,5.3-4.7,8.6-12.3,8.6
		c-8.4,0-15.3-2.8-23-9.5c-0.2-0.2-0.4-0.2-0.7-0.2c-0.3,0-0.5,0.1-0.6,0.3l-7.9,9.4c-0.3,0.4-0.3,1,0.1,1.3c9,8,20,12.2,31.9,12.2
		c16.8,0,27.7-9.2,27.7-23.4C277.2,100.7,270,94,252.4,89.7C252.4,89.8,252.4,89.7,252.4,89.7z M315.2,75.5
		c-7.3,0-13.3,2.9-18.2,8.8v-6.6c0-0.5-0.4-0.9-0.9-0.9h-13c-0.5,0-0.9,0.4-0.9,0.9v73.6c0,0.5,0.4,0.9,0.9,0.9h13
		c0.5,0,0.9-0.4,0.9-0.9V128c4.9,5.5,10.9,8.2,18.2,8.2c13.5,0,27.3-10.4,27.3-30.4C342.5,85.9,328.8,75.5,315.2,75.5L315.2,75.5
		L315.2,75.5z M327.4,105.9c0,10.1-6.2,17.2-15.2,17.2c-8.9,0-15.5-7.4-15.5-17.2c0-9.8,6.7-17.2,15.5-17.2
		C321,88.6,327.4,95.9,327.4,105.9L327.4,105.9z M377.6,75.5c-17.5,0-31.1,13.4-31.1,30.6c0,17,13.6,30.3,30.9,30.3
		c17.5,0,31.2-13.4,31.2-30.5C408.6,88.8,395,75.5,377.6,75.5L377.6,75.5z M377.6,123.2c-9.3,0-16.3-7.5-16.3-17.3
		c0-9.9,6.8-17.1,16.1-17.1c9.3,0,16.4,7.5,16.4,17.4C393.8,116,387,123.2,377.6,123.2z M445.9,76.7h-14.2V62.1
		c0-0.5-0.4-0.9-0.9-0.9h-13c-0.5,0-1,0.4-1,0.9v14.6h-6.2c-0.5,0-0.9,0.4-0.9,0.9v11.1c0,0.5,0.4,0.9,0.9,0.9h6.2v28.8
		c0,11.6,5.8,17.5,17.2,17.5c4.6,0,8.5-1,12.1-3c0.3-0.2,0.5-0.5,0.5-0.8v-10.6c0-0.3-0.2-0.6-0.5-0.8c-0.3-0.2-0.6-0.2-0.9,0
		c-2.5,1.2-4.9,1.8-7.6,1.8c-4.1,0-6-1.9-6-6.1V89.7h14.2c0.5,0,0.9-0.4,0.9-0.9V77.6C446.9,77.1,446.4,76.7,445.9,76.7L445.9,76.7
		L445.9,76.7z M495.5,76.7v-1.8c0-5.3,2-7.6,6.5-7.6c2.7,0,4.9,0.5,7.3,1.3c0.3,0.1,0.6,0,0.9-0.1c0.2-0.2,0.4-0.5,0.4-0.8V56.9
		c0-0.4-0.3-0.8-0.7-0.9c-2.6-0.8-5.8-1.5-10.8-1.5c-12,0-18.3,6.7-18.3,19.5v2.7h-6.2c-0.5,0-1,0.4-1,0.9v11.2c0,0.5,0.4,0.9,1,0.9
		h6.2v44.4c0,0.5,0.4,0.9,1,0.9h12.9c0.5,0,1-0.4,1-0.9V89.7h12.1l18.5,44.4c-2.1,4.7-4.2,5.6-7,5.6c-2.3,0-4.7-0.7-7.1-2
		c-0.2-0.1-0.5-0.1-0.8-0.1c-0.2,0.1-0.5,0.3-0.6,0.5l-4.4,9.6c-0.2,0.5,0,1,0.4,1.2c4.6,2.5,8.7,3.5,13.8,3.5
		c9.6,0,14.8-4.5,19.5-16.4l22.5-58c0.1-0.3,0.1-0.6-0.1-0.9c-0.2-0.3-0.5-0.4-0.8-0.4h-13.5c-0.4,0-0.8,0.3-0.9,0.6l-13.8,39.4
		l-15.1-39.5c-0.1-0.4-0.5-0.6-0.9-0.6L495.5,76.7L495.5,76.7L495.5,76.7z M466.8,76.7h-13c-0.5,0-1,0.4-1,0.9v56.5
		c0,0.5,0.4,0.9,1,0.9h13c0.5,0,1-0.4,1-0.9V77.6C467.7,77.1,467.3,76.7,466.8,76.7C466.8,76.7,466.8,76.7,466.8,76.7z M460.4,51
		c-5.1,0-9.3,4.2-9.3,9.3c0,5.1,4.2,9.3,9.3,9.3s9.3-4.2,9.3-9.3C469.6,55.1,465.5,51,460.4,51z M573.8,94.8c-5.1,0-9.1-4.1-9.1-9.1
		s4-9.2,9.2-9.2s9.1,4.1,9.1,9.1C582.9,90.7,578.9,94.8,573.8,94.8z M573.8,77.5c-4.7,0-8.2,3.7-8.2,8.3c0,4.5,3.5,8.2,8.2,8.2
		c4.7,0,8.2-3.7,8.2-8.3C582,81.1,578.5,77.5,573.8,77.5z M575.9,86.6l2.6,3.6h-2.2l-2.3-3.3h-2v3.3h-1.8v-9.6h4.3
		c2.2,0,3.7,1.1,3.7,3.1C578.1,85.3,577.2,86.2,575.9,86.6L575.9,86.6z M574.3,82.3h-2.4v3h2.4c1.2,0,1.9-0.6,1.9-1.5
		C576.2,82.8,575.5,82.3,574.3,82.3z"/>
	<g>
		<path class="st2" d="M1427.3,35.9h16.2v38.8h0.3c4.4-7.4,13.7-11.9,21.9-11.9c23.2,0,34.4,18.2,34.4,40.5
			c0,20.4-10,39.7-31.7,39.7c-10,0-20.6-2.5-25.5-12.5h-0.3v10.5h-15.4L1427.3,35.9L1427.3,35.9z M1463.6,76.1
			c-13.6,0-20.6,10.7-20.6,26.9c0,15.3,7.5,26.8,20.6,26.8c14.8,0,20.3-13.5,20.3-26.8C1483.9,89.2,1477,76.1,1463.6,76.1"/>
		<path class="st2" d="M1559.9,90.3c-1.3-9.3-7.8-14.3-16.8-14.3c-8.4,0-20.2,4.6-20.2,27.7c0,12.7,5.4,26,19.5,26
			c9.4,0,15.9-6.5,17.5-17.4h16.2c-3,19.7-14.8,30.6-33.7,30.6c-23,0-35.7-16.9-35.7-39.3c0-22.9,12.1-40.9,36.3-40.9
			c17.1,0,31.6,8.8,33.1,27.5H1559.9L1559.9,90.3z"/>
		<polygon class="st2" points="1370.7,140.7 1249.1,140.7 1305.8,35.9 1427.4,35.9 		"/>
	</g>
</g>
</svg>
