<?xml version="1.0" encoding="utf-8"?>
<!-- Generator: Adobe Illustrator 25.3.1, SVG Export Plug-In . SVG Version: 6.00 Build 0)  -->
<svg version="1.1" id="Layer_1" xmlns="http://www.w3.org/2000/svg" xmlns:xlink="http://www.w3.org/1999/xlink" x="0px" y="0px"
	 viewBox="0 0 637 200" style="enable-background:new 0 0 637 200;" xml:space="preserve">
<style type="text/css">
	.st0{display:none;}
	.st1{display:inline;fill:#9CFF57;}
	.st2{fill:#333333;}
</style>
<g id="Layer_2_1_" class="st0">
	<rect x="-146" y="0" class="st1" width="1920" height="200"/>
</g>
<g id="g93" transform="matrix(0.35277777,0,0,-0.35277777,91.409284,184.54014)">
	<path id="path95" class="st2" d="M398.5,138.3h-47V305h-60.8v40.3h168.6V305h-60.8L398.5,138.3L398.5,138.3z"/>
</g>
<path id="path97" class="st2" d="M308.7,135.7H292v-73h16.7V135.7z"/>
<g id="g99" transform="matrix(0.35277777,0,0,-0.35277777,121.2335,183.41527)">
	<path id="path101" class="st2" d="M1272.5,176h81.8v-40.9h-129.1v207h47.3L1272.5,176L1272.5,176z"/>
</g>
<g id="g105">
	<g id="g111" transform="translate(185.5858,506.7018)">
		<path id="path113" class="st2" d="M167.7-444h27c19.9,0,39.8,10.6,39.8,36.3c0,24.3-19.4,36.7-38.8,36.7h-28V-444z M183.9-385.3
			h10.3c13.9,0,23.2-8.7,23.2-22.5c0-13.1-9.4-22-22.8-22h-10.7V-385.3z"/>
	</g>
</g>
<g id="g115" transform="matrix(0.35277777,0,0,-0.35277777,115.03132,184.54014)">
	<path id="path117" class="st2" d="M1096,138.3h52l-85.3,207h-48.8l-86.1-207h50.6l15.3,40.8h87.3L1096,138.3z M1006.3,216l31.2,81
		l30.9-81H1006.3z"/>
</g>
<g id="g119" transform="matrix(0.35277777,0,0,-0.35277777,79.736148,179.6705)">
	<path id="path121" class="st2" d="M84.4,301.4l-60.6-60.6l-60.6,60.6L23.8,362L84.4,301.4z"/>
</g>
<g id="g123" transform="matrix(0.35277777,0,0,-0.35277777,79.736148,183.00757)">
	<path id="path125" class="st2" d="M84.4,189.7l-60.6-60.6l-60.6,60.6l60.6,60.6L84.4,189.7z"/>
</g>
<g id="g127" transform="matrix(0.35277777,0,0,-0.35277777,76.39926,179.67064)">
	<path id="path129" class="st2" d="M-27.3,301.4l-60.6-60.6l-60.6,60.6l60.6,60.6L-27.3,301.4z"/>
</g>
<g id="g131" transform="matrix(0.35277777,0,0,-0.35277777,83.072861,179.67064)">
	<path id="path133" class="st2" d="M196.1,301.4l-60.6-60.6l-60.6,60.6l60.6,60.6L196.1,301.4z"/>
</g>
</svg>
