<?xml version="1.0" encoding="utf-8"?>
<!-- Generator: Adobe Illustrator 25.3.1, SVG Export Plug-In . SVG Version: 6.00 Build 0)  -->
<svg version="1.1" id="Layer_1" xmlns="http://www.w3.org/2000/svg" xmlns:xlink="http://www.w3.org/1999/xlink" x="0px" y="0px"
	 viewBox="0 0 746 173.9" style="enable-background:new 0 0 746 173.9;" xml:space="preserve">
<style type="text/css">
	.st0{display:none;}
	.st1{display:inline;fill:#9CFF57;}
	.st2{fill:#46B4FF;}
	.st3{fill:#FFFFFF;}
</style>
<g id="Layer_2_1_" class="st0">
	<rect x="-146" y="0" class="st1" width="1920" height="200"/>
</g>
<path class="st2" d="M516.6,73.4c-2.8,13.9-4.8,30.7-5.9,37.8H510c-0.9-7.2-2.9-24-5.8-37.7l-7-33.9H476v91.5h13.2V55.6l1.3,7
	l13.4,68.4H517l13.2-68.4l1.4-7.1v45.4V131h13.2V39.5h-21.5L516.6,73.4z"/>
<path class="st2" d="M580.6,117.3c-1.2,2.5-3.8,4.2-6.4,4.2c-3,0-4.2-2.4-4.2-8.3v-49h-15.1v50c0,12.3,4.1,18,13,18
	c6.1,0,11-2.8,14.4-9.3h0.3l1.3,8.1h11.8V64.2h-15.1V117.3L580.6,117.3z"/>
<path class="st2" d="M624.8,90.6c-4.9-3.6-8-6-8-11.3c0-3.7,1.7-5.8,5.9-5.8s5.7,2.9,5.8,13l12.6-0.5c1-16.3-4.3-23-18.2-23
	c-12.9,0-19.2,5.8-19.2,17.7c0,10.8,5.2,15.7,13.8,22.2c7.3,5.7,11.5,8.8,11.5,13.4c0,3.5-2.2,5.9-6,5.9c-4.5,0-7.1-4.2-6.4-11.7
	l-12.8,0.2c-2,13.9,3.6,21.9,18.4,21.9c13,0,19.7-6,19.7-18C642,103.7,636.6,99.3,624.8,90.6z"/>
<rect x="650.3" y="64.2" class="st2" width="14.4" height="66.9"/>
<path class="st2" d="M657.6,37.8c-5.5,0-8.1,2.1-8.1,9.3c0,7.4,2.6,9.3,8.1,9.3c5.7,0,8.1-1.8,8.1-9.3
	C665.8,40.2,663.3,37.8,657.6,37.8z"/>
<path class="st2" d="M713.2,107l-13.2-0.7c0,11.8-1.3,15.6-5.8,15.6s-5.2-4.2-5.2-18.1v-13c0-13.4,0.9-17.7,5.4-17.7
	c4.2,0,5.2,4.1,5.2,16.5l13.1-0.9c0.9-10.4-0.4-17.5-4.5-21.5c-2.9-2.9-7.4-4.3-13.6-4.3c-14.6,0-20.6,7.9-20.6,29.9v9.4
	c0,22.7,5.1,30,20.1,30c6.3,0,10.7-1.3,13.6-4.2C711.8,124.1,713.5,117.3,713.2,107z"/>
<path class="st2" d="M199.1,129.2c-3-2-5.2-5.2-6.4-9.5c-1.3-4.3-1.9-10-1.9-17.1v-9.7c0-7.2,0.7-13,2.2-17.3
	c1.5-4.3,3.7-7.5,6.8-9.5s7.2-3,12.2-3c4.9,0,8.9,1,11.9,3s5.2,5.2,6.5,9.5c1.4,4.3,2.1,10,2.1,17.3v9.7c0,7.1-0.7,12.9-2,17.2
	c-1.4,4.3-3.6,7.5-6.5,9.5c-3,2-7.1,3-12.3,3C206.3,132.2,202.2,131.2,199.1,129.2z M216.1,118.7c0.9-2.2,1.3-5.7,1.3-10.7V87.1
	c0-4.8-0.4-8.3-1.3-10.6c-0.9-2.3-2.3-3.3-4.4-3.3c-2,0-3.5,1.1-4.3,3.3c-0.9,2.3-1.3,5.7-1.3,10.6V108c0,4.9,0.4,8.5,1.2,10.7
	s2.3,3.3,4.3,3.3C213.8,121.9,215.2,120.9,216.1,118.7z"/>
<path class="st2" d="M430.9,102.7v3.4c0,4.3,0.1,7.5,0.3,9.7c0.3,2.2,0.8,3.7,1.6,4.7c0.8,1,2,1.5,3.7,1.5c2.3,0,3.8-0.9,4.7-2.6
	c0.9-1.7,1.3-4.7,1.4-8.7l13,0.8c0.1,0.6,0.1,1.4,0.1,2.4c0,6.1-1.6,10.8-5.1,13.9c-3.4,3-8.1,4.6-14.4,4.6c-7.4,0-12.6-2.3-15.6-7
	s-4.5-11.9-4.5-21.6V91.9c0-10,1.6-17.4,4.7-22s8.4-6.9,15.8-6.9c5.2,0,9.1,1,11.9,2.9s4.7,4.8,5.8,8.8c1.1,4,1.6,9.5,1.6,16.5v11.4
	C455.9,102.7,430.9,102.7,430.9,102.7z M432.8,74.5c-0.8,1-1.3,2.5-1.6,4.7c-0.3,2.2-0.3,5.4-0.3,9.8v4.8h11V89
	c0-4.3-0.2-7.5-0.4-9.8c-0.3-2.3-0.8-3.8-1.6-4.7c-0.8-1-1.9-1.4-3.6-1.4C434.7,73.1,433.6,73.6,432.8,74.5z"/>
<path class="st2" d="M162.5,101.4l-17.1-61.9h15l6,28.1c1.6,6.9,2.7,12.8,3.4,17.7h0.4c0.5-3.5,1.6-9.4,3.4-17.6l6.2-28.1h15
	l-17.3,61.9v29.7h-14.8L162.5,101.4L162.5,101.4z"/>
<path class="st2" d="M281.1,64.2V131h-11.8l-1.3-8.1h-0.3c-3.2,6.1-8.1,9.3-14.4,9.3c-4.4,0-7.7-1.5-9.8-4.3
	c-2.1-2.9-3.2-7.4-3.2-13.7v-50h15.1v49.1c0,3,0.3,5.1,1,6.4c0.7,1.3,1.7,1.9,3.3,1.9c1.3,0,2.6-0.4,3.7-1.2c1.2-0.8,2.1-1.8,2.7-3
	V64.2H281.1z"/>
<path class="st2" d="M358.4,64.2V131h-11.8l-1.3-8.1H345c-3.2,6.1-8.1,9.3-14.4,9.3c-4.4,0-7.7-1.5-9.8-4.3
	c-2.1-2.9-3.2-7.4-3.2-13.7v-50h15.1v49.1c0,3,0.3,5.1,1,6.4s1.7,1.9,3.3,1.9c1.3,0,2.6-0.4,3.7-1.2c1.2-0.8,2.1-1.8,2.7-3V64.2
	H358.4z"/>
<path class="st2" d="M322,51.7h-14.9v79.4h-14.7V51.7h-15V39.5h44.7L322,51.7L322,51.7z"/>
<path class="st2" d="M408.2,74.9c-1-4.2-2.4-7.3-4.4-9.2c-2-1.9-4.8-2.9-8.4-2.9c-2.8,0-5.4,0.8-7.8,2.3c-2.4,1.6-4.2,3.6-5.5,6.1
	H382v-35h-14.5v94.9h12.4l1.6-6.3h0.3c1.1,2.3,2.9,4.1,5.2,5.4c2.3,1.3,4.9,2,7.8,2c5.1,0,8.8-2.3,11.3-7c2.4-4.7,3.6-12,3.6-22
	V92.5C409.5,85,409.1,79.1,408.2,74.9z M394.4,102.1c0,4.8-0.2,8.7-0.6,11.4c-0.4,2.8-1,4.8-2,5.9c-1,1.2-2.3,1.7-3.8,1.7
	c-1.2,0-2.4-0.3-3.5-0.9c-1-0.6-1.9-1.5-2.6-2.6V79.8c0.5-1.8,1.4-3.3,2.6-4.5c1.2-1.1,2.6-1.7,4.1-1.7c1.6,0,2.7,0.6,3.6,1.8
	c0.9,1.2,1.4,3.2,1.7,6.1c0.3,2.9,0.5,6.8,0.5,12.1L394.4,102.1L394.4,102.1z"/>
<circle id="XMLID_791_" class="st2" cx="76.6" cy="87.6" r="59.4"/>
<path id="XMLID_42_" class="st3" d="M76.6,59.3C92.2,59.3,105,72,105,87.7s-12.7,28.4-28.4,28.4s-28.4-12.8-28.4-28.5
	S61,59.3,76.6,59.3 M76.6,56.6c-17.1,0-31.1,13.9-31.1,31s13.9,31.1,31.1,31.1s31.1-13.9,31.1-31.1S93.7,56.6,76.6,56.6L76.6,56.6z"
	/>
<polygon id="XMLID_274_" class="st3" points="65.8,103.2 92.1,87 65.8,72.1 "/>
</svg>
